<svg xmlns="http://www.w3.org/2000/svg" x="0px" y="0px" width="48" height="48" viewBox="0 0 172 172" style=" fill:#000000;"><g fill="none" fill-rule="nonzero" stroke="none" stroke-width="1" stroke-linecap="butt" stroke-linejoin="miter" stroke-miterlimit="10" stroke-dasharray="" stroke-dashoffset="0" font-family="none" font-weight="none" font-size="none" text-anchor="none" style="mix-blend-mode: normal"><path d="M0,172v-172h172v172z" fill="none"></path><path d="M60.2,172c-33.24754,0 -60.2,-26.95246 -60.2,-60.2v-51.6c0,-33.24754 26.95246,-60.2 60.2,-60.2h51.6c33.24754,0 60.2,26.95246 60.2,60.2v51.6c0,33.24754 -26.95246,60.2 -60.2,60.2z" fill="#ffffff"></path><g fill="#454545"><path d="M116.272,42.484c-7.30312,0 -13.244,5.94088 -13.244,13.244c0,3.49223 1.36821,6.66273 3.58445,9.03134l-15.83441,19.34866h-21.95755c-0.92305,-6.40742 -6.4335,-11.352 -13.09249,-11.352c-7.30312,0 -13.244,5.94088 -13.244,13.244c0,7.30312 5.94088,13.244 13.244,13.244c6.65899,0 12.16944,-4.94458 13.09249,-11.352h21.9132l15.19513,20.12837c-1.81195,2.26587 -2.90082,5.13126 -2.90082,8.25163c0,7.30312 5.94088,13.244 13.244,13.244c7.30312,0 13.244,-5.94088 13.244,-13.244c0,-7.30312 -5.94088,-13.244 -13.244,-13.244c-2.81342,0 -5.41698,0.88931 -7.5643,2.39087l-14.62605,-19.37083l15.47966,-18.9237c1.97117,1.1654 4.25947,1.84766 6.71069,1.84766c7.30312,0 13.244,-5.94088 13.244,-13.244c0,-7.30312 -5.94088,-13.244 -13.244,-13.244z"></path></g></g></svg>