<svg xmlns="http://www.w3.org/2000/svg" x="0px" y="0px" width="48" height="48" viewBox="0 0 172 172" style=" fill:#000000;"><g fill="none" fill-rule="nonzero" stroke="none" stroke-width="1" stroke-linecap="butt" stroke-linejoin="miter" stroke-miterlimit="10" stroke-dasharray="" stroke-dashoffset="0" font-family="none" font-weight="none" font-size="none" text-anchor="none" style="mix-blend-mode: normal"><path d="M0,172v-172h172v172z" fill="none"></path><path d="M60.2,172c-33.24754,0 -60.2,-26.95246 -60.2,-60.2v-51.6c0,-33.24754 26.95246,-60.2 60.2,-60.2h51.6c33.24754,0 60.2,26.95246 60.2,60.2v51.6c0,33.24754 -26.95246,60.2 -60.2,60.2z" fill="#ffffff"></path><g fill="#454545"><path d="M78.21599,39.22932c-21.48556,0 -38.98667,17.5011 -38.98667,38.98667c0,21.48556 17.5011,38.98667 38.98667,38.98667c9.34319,0 17.92367,-3.31782 24.64841,-8.8253l23.27778,23.27778c0.97785,1.01849 2.42991,1.42877 3.79617,1.0726c1.36626,-0.35617 2.43322,-1.42313 2.78939,-2.78939c0.35617,-1.36626 -0.05411,-2.81832 -1.0726,-3.79617l-23.27778,-23.27778c5.50748,-6.72474 8.8253,-15.30522 8.8253,-24.64841c0,-21.48556 -17.5011,-38.98667 -38.98667,-38.98667zM78.21599,47.02665c17.27157,0 31.18933,13.91776 31.18933,31.18933c0,17.27157 -13.91776,31.18933 -31.18933,31.18933c-17.27157,0 -31.18933,-13.91776 -31.18933,-31.18933c0,-17.27157 13.91776,-31.18933 31.18933,-31.18933zM62.62132,74.31732c-2.15317,0 -3.89867,1.74549 -3.89867,3.89867c0,2.15317 1.74549,3.89867 3.89867,3.89867c2.15317,0 3.89867,-1.74549 3.89867,-3.89867c0,-2.15317 -1.74549,-3.89867 -3.89867,-3.89867zM78.21599,74.31732c-2.15317,0 -3.89867,1.74549 -3.89867,3.89867c0,2.15317 1.74549,3.89867 3.89867,3.89867c2.15317,0 3.89867,-1.74549 3.89867,-3.89867c0,-2.15317 -1.74549,-3.89867 -3.89867,-3.89867zM93.81065,74.31732c-2.15317,0 -3.89867,1.74549 -3.89867,3.89867c0,2.15317 1.74549,3.89867 3.89867,3.89867c2.15317,0 3.89867,-1.74549 3.89867,-3.89867c0,-2.15317 -1.74549,-3.89867 -3.89867,-3.89867z"></path></g></g></svg>