<svg xmlns="http://www.w3.org/2000/svg" x="0px" y="0px" width="48" height="48" viewBox="0 0 172 172" style=" fill:#000000;"><g fill="none" fill-rule="nonzero" stroke="none" stroke-width="1" stroke-linecap="butt" stroke-linejoin="miter" stroke-miterlimit="10" stroke-dasharray="" stroke-dashoffset="0" font-family="none" font-weight="none" font-size="none" text-anchor="none" style="mix-blend-mode: normal"><path d="M0,172v-172h172v172z" fill="none"></path><path d="M60.2,172c-33.24754,0 -60.2,-26.95246 -60.2,-60.2v-51.6c0,-33.24754 26.95246,-60.2 60.2,-60.2h51.6c33.24754,0 60.2,26.95246 60.2,60.2v51.6c0,33.24754 -26.95246,60.2 -60.2,60.2z" fill="#ffffff"></path><g fill="#454545"><path d="M102.01415,45.81208c-1.63312,0.00043 -3.10314,0.99031 -3.71767,2.5034c-0.61453,1.51309 -0.25102,3.24765 0.91932,4.38668l9.20245,9.20245h-2.35156c-24.33447,0 -44.14667,19.81219 -44.14667,44.14667c-0.02047,1.44735 0.73996,2.79361 1.9901,3.52326c1.25014,0.72965 2.79632,0.72965 4.04646,0c1.25014,-0.72965 2.01057,-2.0759 1.9901,-3.52326c0,-19.99681 16.12319,-36.12 36.12,-36.12h2.35156l-9.20245,9.20245c-1.04845,1.00661 -1.47079,2.50138 -1.10414,3.90782c0.36665,1.40644 1.46499,2.50478 2.87143,2.87143c1.40644,0.36665 2.90121,-0.0557 3.90782,-1.10414l16.05333,-16.05333c1.56668,-1.56733 1.56668,-4.10778 0,-5.6751l-16.05333,-16.05333c-0.75559,-0.77671 -1.79314,-1.21491 -2.87675,-1.21497zM49.8173,69.8764c-2.21342,0.0346 -3.98094,1.85472 -3.95063,4.0682v40.13333c0,6.60181 5.43819,12.04 12.04,12.04h56.18667c6.60181,0 12.04,-5.43819 12.04,-12.04v-4.01333c0.02047,-1.44735 -0.73996,-2.79361 -1.9901,-3.52326c-1.25014,-0.72965 -2.79632,-0.72965 -4.04646,0c-1.25014,0.72965 -2.01057,2.0759 -1.9901,3.52326v4.01333c0,2.26765 -1.74568,4.01333 -4.01333,4.01333h-56.18667c-2.26765,0 -4.01333,-1.74568 -4.01333,-4.01333v-40.13333c0.01486,-1.08481 -0.41007,-2.12942 -1.17795,-2.89583c-0.76788,-0.76641 -1.81331,-1.18932 -2.89809,-1.17238z"></path></g></g></svg>